<svg width="448" height="206" viewBox="0 0 448 206" fill="none" xmlns="http://www.w3.org/2000/svg" xmlns:xlink="http://www.w3.org/1999/xlink">
<g clip-path="url(#clip0_7_220)">
<rect width="22.4" height="67" transform="translate(0 139)" fill="url(#pattern0_7_220)"/>
<rect width="22.4" height="132" transform="translate(30.4 74)" fill="url(#pattern1_7_220)"/>
<rect width="22.4" height="32" transform="translate(60.8 174)" fill="url(#pattern2_7_220)"/>
<rect width="22.4" height="67" transform="translate(91.2 139)" fill="url(#pattern3_7_220)"/>
<rect width="22.4" height="132" transform="translate(121.6 74)" fill="url(#pattern4_7_220)"/>
<rect width="22.4" height="100" transform="translate(152 106)" fill="url(#pattern5_7_220)"/>
<rect width="22.4" height="150" transform="translate(182.4 56)" fill="url(#pattern6_7_220)"/>
<rect width="22.4" height="167" transform="translate(212.8 39)" fill="url(#pattern7_7_220)"/>
<rect width="22.4" height="117" transform="translate(243.2 89)" fill="url(#pattern8_7_220)"/>
<rect width="22.4" height="150" transform="translate(273.6 56)" fill="url(#pattern9_7_220)"/>
<rect width="22.4" height="100" transform="translate(304 106)" fill="url(#pattern10_7_220)"/>
<rect width="22.4" height="167" transform="translate(334.4 39)" fill="url(#pattern11_7_220)"/>
<rect width="22.4" height="80" transform="translate(364.8 126)" fill="url(#pattern12_7_220)"/>
<rect width="22.4" height="132" transform="translate(395.2 74)" fill="url(#pattern13_7_220)"/>
<rect width="22.4" height="167" transform="translate(425.6 39)" fill="url(#pattern14_7_220)"/>
<rect x="94" y="54.5" width="95" height="42.5" rx="1.5" fill="#1C1A17"/>
<rect x="94" y="54.5" width="95" height="42.5" rx="1.5" stroke="#44413C"/>
<rect x="99.5" y="63" width="8" height="8" fill="#FFC42F"/>
<path opacity="0.34" d="M115.651 63.2727V72H114.33V64.5938H114.278L112.19 65.9574V64.696L114.368 63.2727H115.651ZM118.011 72V71.0455L120.964 67.9858C121.28 67.6534 121.54 67.3622 121.744 67.1122C121.952 66.8594 122.107 66.6193 122.209 66.392C122.311 66.1648 122.362 65.9233 122.362 65.6676C122.362 65.3778 122.294 65.1278 122.158 64.9176C122.021 64.7045 121.835 64.5412 121.599 64.4276C121.364 64.3111 121.098 64.2528 120.803 64.2528C120.49 64.2528 120.217 64.3168 119.984 64.4446C119.751 64.5724 119.572 64.7528 119.447 64.9858C119.322 65.2187 119.26 65.4915 119.26 65.804H118.003C118.003 65.2727 118.125 64.8082 118.369 64.4105C118.614 64.0128 118.949 63.7045 119.375 63.4858C119.801 63.2642 120.286 63.1534 120.828 63.1534C121.376 63.1534 121.859 63.2628 122.277 63.4815C122.697 63.6974 123.026 63.9929 123.261 64.3679C123.497 64.7401 123.615 65.1605 123.615 65.6293C123.615 65.9531 123.554 66.2699 123.432 66.5795C123.313 66.8892 123.104 67.2344 122.805 67.6151C122.507 67.9929 122.092 68.4517 121.561 68.9915L119.827 70.8068V70.8707H123.756V72H118.011ZM132.058 63.2727H133.37V69.4602C133.37 70.0199 133.26 70.4986 133.038 70.8963C132.819 71.294 132.511 71.598 132.113 71.8082C131.716 72.0156 131.25 72.1193 130.716 72.1193C130.224 72.1193 129.782 72.0298 129.39 71.8509C129.001 71.6719 128.693 71.4119 128.466 71.071C128.241 70.7273 128.129 70.3097 128.129 69.8182H129.437C129.437 70.0597 129.493 70.2685 129.603 70.4446C129.717 70.6207 129.872 70.7585 130.068 70.858C130.267 70.9545 130.494 71.0028 130.75 71.0028C131.028 71.0028 131.264 70.9446 131.457 70.8281C131.653 70.7088 131.802 70.5341 131.904 70.304C132.007 70.0739 132.058 69.7926 132.058 69.4602V63.2727ZM139.331 69.2855V65.4545H140.609V72H139.357V70.8665H139.288C139.138 71.2159 138.896 71.5071 138.564 71.7401C138.234 71.9702 137.824 72.0852 137.332 72.0852C136.912 72.0852 136.54 71.9929 136.216 71.8082C135.895 71.6207 135.642 71.3438 135.457 70.9773C135.276 70.6108 135.185 70.1577 135.185 69.6179V65.4545H136.459V69.4645C136.459 69.9105 136.582 70.2656 136.83 70.5298C137.077 70.794 137.398 70.9261 137.793 70.9261C138.031 70.9261 138.268 70.8665 138.504 70.7472C138.743 70.6278 138.94 70.4474 139.097 70.206C139.256 69.9645 139.334 69.6577 139.331 69.2855ZM143.596 63.2727V72H142.321V63.2727H143.596ZM148.468 72V71.0455L151.422 67.9858C151.737 67.6534 151.997 67.3622 152.201 67.1122C152.409 66.8594 152.564 66.6193 152.666 66.392C152.768 66.1648 152.819 65.9233 152.819 65.6676C152.819 65.3778 152.751 65.1278 152.615 64.9176C152.478 64.7045 152.292 64.5412 152.056 64.4276C151.821 64.3111 151.555 64.2528 151.26 64.2528C150.947 64.2528 150.674 64.3168 150.441 64.4446C150.208 64.5724 150.029 64.7528 149.904 64.9858C149.779 65.2187 149.717 65.4915 149.717 65.804H148.46C148.46 65.2727 148.582 64.8082 148.826 64.4105C149.071 64.0128 149.406 63.7045 149.832 63.4858C150.258 63.2642 150.743 63.1534 151.285 63.1534C151.833 63.1534 152.316 63.2628 152.734 63.4815C153.154 63.6974 153.483 63.9929 153.718 64.3679C153.954 64.7401 154.072 65.1605 154.072 65.6293C154.072 65.9531 154.011 66.2699 153.889 66.5795C153.77 66.8892 153.561 67.2344 153.262 67.6151C152.964 67.9929 152.549 68.4517 152.018 68.9915L150.284 70.8068V70.8707H154.213V72H148.468ZM158.866 72.1449C158.193 72.142 157.618 71.9645 157.14 71.6122C156.663 71.2599 156.298 70.7472 156.045 70.0739C155.792 69.4006 155.666 68.5895 155.666 67.6406C155.666 66.6946 155.792 65.8864 156.045 65.2159C156.301 64.5455 156.667 64.0341 157.145 63.6818C157.625 63.3295 158.199 63.1534 158.866 63.1534C159.534 63.1534 160.106 63.331 160.583 63.6861C161.061 64.0384 161.426 64.5497 161.679 65.2202C161.934 65.8878 162.062 66.6946 162.062 67.6406C162.062 68.5923 161.936 69.4048 161.683 70.0781C161.43 70.7486 161.065 71.2614 160.588 71.6165C160.11 71.9688 159.537 72.1449 158.866 72.1449ZM158.866 71.0071C159.457 71.0071 159.919 70.7188 160.251 70.142C160.586 69.5653 160.754 68.7315 160.754 67.6406C160.754 66.9162 160.677 66.304 160.524 65.804C160.373 65.3011 160.156 64.9205 159.872 64.6619C159.591 64.4006 159.255 64.2699 158.866 64.2699C158.278 64.2699 157.816 64.5597 157.481 65.1392C157.146 65.7187 156.977 66.5526 156.974 67.6406C156.974 68.3679 157.049 68.983 157.2 69.4858C157.353 69.9858 157.571 70.3651 157.852 70.6236C158.133 70.8793 158.471 71.0071 158.866 71.0071ZM163.574 72V71.0455L166.527 67.9858C166.842 67.6534 167.102 67.3622 167.307 67.1122C167.514 66.8594 167.669 66.6193 167.771 66.392C167.874 66.1648 167.925 65.9233 167.925 65.6676C167.925 65.3778 167.857 65.1278 167.72 64.9176C167.584 64.7045 167.398 64.5412 167.162 64.4276C166.926 64.3111 166.661 64.2528 166.365 64.2528C166.053 64.2528 165.78 64.3168 165.547 64.4446C165.314 64.5724 165.135 64.7528 165.01 64.9858C164.885 65.2187 164.822 65.4915 164.822 65.804H163.565C163.565 65.2727 163.688 64.8082 163.932 64.4105C164.176 64.0128 164.511 63.7045 164.938 63.4858C165.364 63.2642 165.848 63.1534 166.391 63.1534C166.939 63.1534 167.422 63.2628 167.839 63.4815C168.26 63.6974 168.588 63.9929 168.824 64.3679C169.06 64.7401 169.178 65.1605 169.178 65.6293C169.178 65.9531 169.116 66.2699 168.994 66.5795C168.875 66.8892 168.666 67.2344 168.368 67.6151C168.07 67.9929 167.655 68.4517 167.124 68.9915L165.389 70.8068V70.8707H169.318V72H163.574ZM173.814 72.1193C173.28 72.1193 172.8 72.017 172.374 71.8125C171.95 71.6051 171.612 71.321 171.359 70.9602C171.107 70.5994 170.972 70.1875 170.955 69.7244H172.233C172.264 70.0994 172.43 70.4077 172.732 70.6491C173.033 70.8906 173.393 71.0114 173.814 71.0114C174.149 71.0114 174.446 70.9347 174.705 70.7812C174.966 70.625 175.17 70.4105 175.318 70.1378C175.469 69.8651 175.544 69.554 175.544 69.2045C175.544 68.8494 175.467 68.5327 175.314 68.2543C175.161 67.9759 174.949 67.7571 174.679 67.598C174.412 67.4389 174.105 67.358 173.759 67.3551C173.494 67.3551 173.229 67.4006 172.962 67.4915C172.695 67.5824 172.479 67.7017 172.314 67.8494L171.108 67.6705L171.598 63.2727H176.396V64.402H172.693L172.416 66.8438H172.467C172.638 66.679 172.864 66.5412 173.145 66.4304C173.429 66.3196 173.733 66.2642 174.057 66.2642C174.588 66.2642 175.061 66.3906 175.476 66.6435C175.893 66.8963 176.222 67.2415 176.46 67.679C176.702 68.1136 176.821 68.6136 176.818 69.179C176.821 69.7443 176.693 70.2486 176.435 70.6918C176.179 71.1349 175.824 71.4844 175.369 71.7401C174.918 71.9929 174.399 72.1193 173.814 72.1193Z" fill="#FAFAF9"/>
<path d="M115.686 90.7727V78.0455H116.501V90.7727H115.686ZM118.038 82.1172C117.991 81.683 117.796 81.3449 117.451 81.103C117.11 80.861 116.665 80.7401 116.119 80.7401C115.734 80.7401 115.404 80.7981 115.129 80.9141C114.854 81.0301 114.644 81.1875 114.498 81.3864C114.352 81.5852 114.277 81.8123 114.274 82.0675C114.274 82.2796 114.322 82.4635 114.418 82.6193C114.518 82.7751 114.652 82.9077 114.821 83.017C114.99 83.1231 115.177 83.2126 115.383 83.2855C115.588 83.3584 115.795 83.4197 116.004 83.4695L116.959 83.7081C117.343 83.7976 117.713 83.9186 118.067 84.071C118.425 84.2235 118.745 84.4157 119.027 84.6477C119.312 84.8797 119.537 85.1598 119.703 85.4879C119.869 85.8161 119.952 86.2005 119.952 86.6413C119.952 87.2379 119.799 87.7633 119.494 88.2173C119.189 88.6681 118.749 89.0211 118.172 89.2763C117.598 89.5282 116.904 89.6541 116.089 89.6541C115.297 89.6541 114.609 89.5315 114.026 89.2862C113.446 89.041 112.991 88.683 112.663 88.2124C112.339 87.7417 112.163 87.1683 112.136 86.4922H113.951C113.978 86.8468 114.087 87.1418 114.279 87.3771C114.471 87.6125 114.722 87.7881 115.03 87.9041C115.341 88.0201 115.689 88.0781 116.074 88.0781C116.475 88.0781 116.826 88.0185 117.128 87.8991C117.433 87.7765 117.671 87.6075 117.844 87.392C118.016 87.1733 118.104 86.9181 118.107 86.6264C118.104 86.3613 118.026 86.1425 117.874 85.9702C117.721 85.7945 117.507 85.6487 117.232 85.5327C116.96 85.4134 116.642 85.3073 116.278 85.2145L115.119 84.9162C114.281 84.7008 113.618 84.3743 113.131 83.9368C112.647 83.496 112.405 82.911 112.405 82.1818C112.405 81.5819 112.567 81.0566 112.892 80.6058C113.22 80.1551 113.666 79.8054 114.229 79.5568C114.793 79.3049 115.431 79.179 116.143 79.179C116.866 79.179 117.499 79.3049 118.043 79.5568C118.589 79.8054 119.019 80.1518 119.33 80.5959C119.642 81.0367 119.803 81.5438 119.812 82.1172H118.038ZM121.497 89.5V88.1676L125.031 84.7024C125.369 84.361 125.651 84.0578 125.877 83.7926C126.102 83.5275 126.271 83.2706 126.384 83.022C126.496 82.7734 126.553 82.5083 126.553 82.2266C126.553 81.9051 126.48 81.63 126.334 81.4013C126.188 81.1693 125.988 80.9903 125.732 80.8643C125.477 80.7384 125.187 80.6754 124.862 80.6754C124.528 80.6754 124.234 80.745 123.982 80.8842C123.731 81.0201 123.535 81.214 123.396 81.4659C123.26 81.7178 123.192 82.0178 123.192 82.3658H121.437C121.437 81.7195 121.584 81.1577 121.879 80.6804C122.174 80.2031 122.58 79.8336 123.097 79.5717C123.618 79.3099 124.214 79.179 124.887 79.179C125.57 79.179 126.17 79.3066 126.687 79.5618C127.204 79.817 127.605 80.1667 127.89 80.6108C128.178 81.0549 128.323 81.562 128.323 82.1321C128.323 82.5133 128.25 82.8878 128.104 83.2557C127.958 83.6236 127.701 84.0312 127.333 84.4787C126.969 84.9261 126.457 85.468 125.797 86.1044L124.042 87.8892V87.9588H128.477V89.5H121.497ZM134.333 79.3182V89.5H132.489V81.1129H132.429L130.048 82.6342V80.9439L132.578 79.3182H134.333ZM137.487 89.6094C137.185 89.6094 136.926 89.5033 136.711 89.2912C136.496 89.0791 136.389 88.8205 136.393 88.5156C136.389 88.2173 136.496 87.9621 136.711 87.75C136.926 87.5379 137.185 87.4318 137.487 87.4318C137.778 87.4318 138.032 87.5379 138.247 87.75C138.466 87.9621 138.577 88.2173 138.58 88.5156C138.577 88.7178 138.524 88.9018 138.421 89.0675C138.322 89.2332 138.189 89.3658 138.023 89.4652C137.861 89.5613 137.682 89.6094 137.487 89.6094ZM140.235 87.6108V86.1442L144.555 79.3182H145.778V81.4062H145.032L142.124 86.0149V86.0945H148.154V87.6108H140.235ZM145.092 89.5V87.1634L145.112 86.5071V79.3182H146.852V89.5H145.092ZM153.397 89.6392C152.681 89.6392 152.045 89.5166 151.488 89.2713C150.934 89.026 150.497 88.6847 150.175 88.2472C149.854 87.8097 149.683 87.3042 149.663 86.7308H151.532C151.549 87.0059 151.64 87.2462 151.806 87.4517C151.972 87.6539 152.192 87.8113 152.467 87.924C152.742 88.0367 153.05 88.093 153.392 88.093C153.756 88.093 154.08 88.0301 154.361 87.9041C154.643 87.7749 154.863 87.5959 155.023 87.3672C155.182 87.1385 155.26 86.875 155.256 86.5767C155.26 86.2685 155.18 85.9967 155.018 85.7614C154.855 85.526 154.62 85.3421 154.312 85.2095C154.007 85.0769 153.639 85.0107 153.208 85.0107H152.308V83.5888H153.208C153.563 83.5888 153.872 83.5275 154.138 83.4048C154.406 83.2822 154.617 83.1098 154.769 82.8878C154.921 82.6624 154.996 82.4022 154.993 82.1072C154.996 81.8189 154.931 81.5687 154.799 81.3565C154.67 81.1411 154.486 80.9737 154.247 80.8544C154.012 80.7351 153.735 80.6754 153.417 80.6754C153.105 80.6754 152.817 80.7318 152.552 80.8445C152.287 80.9571 152.073 81.1179 151.91 81.3267C151.748 81.5322 151.662 81.7775 151.652 82.0625H149.877C149.89 81.4924 150.054 80.992 150.369 80.5611C150.687 80.1269 151.112 79.7888 151.642 79.5469C152.172 79.3016 152.767 79.179 153.427 79.179C154.106 79.179 154.696 79.3066 155.197 79.5618C155.7 79.8137 156.09 80.1534 156.365 80.581C156.64 81.0085 156.778 81.4808 156.778 81.9979C156.781 82.5713 156.612 83.0518 156.27 83.4396C155.932 83.8274 155.488 84.081 154.938 84.2003V84.2798C155.654 84.3793 156.202 84.6444 156.584 85.0753C156.968 85.5028 157.159 86.0348 157.155 86.6712C157.155 87.2412 156.993 87.7517 156.668 88.2024C156.347 88.6499 155.903 89.0012 155.336 89.2564C154.772 89.5116 154.126 89.6392 153.397 89.6392ZM158.961 79.3182H161.218L164.241 86.696H164.36L167.383 79.3182H169.64V89.5H167.87V82.505H167.776L164.962 89.4702H163.64L160.826 82.4901H160.731V89.5H158.961V79.3182Z" fill="#FAFAF9"/>
<g opacity="0.5" filter="url(#filter0_f_7_220)">
<ellipse cx="162.961" cy="158" rx="15" ry="48" fill="#FFC42F"/>
</g>
</g>
<defs>
<filter id="filter0_f_7_220" x="97.9609" y="60" width="130" height="196" filterUnits="userSpaceOnUse" color-interpolation-filters="sRGB">
<feFlood flood-opacity="0" result="BackgroundImageFix"/>
<feBlend mode="normal" in="SourceGraphic" in2="BackgroundImageFix" result="shape"/>
<feGaussianBlur stdDeviation="25" result="effect1_foregroundBlur_7_220"/>
</filter>
<clipPath id="clip0_7_220">
<rect width="448" height="206" fill="white"/>
</clipPath>
<pattern id="pattern0_7_220" patternUnits="userSpaceOnUse" patternTransform="matrix(4.6 0 0 4.6 20.1 32.35)" preserveAspectRatio="none" viewBox="0 0 20 20" width="1" height="1">
<g id="pattern0_7_220_inner">
<rect width="10" height="10" fill="#34342A"/>
</g>
</pattern><pattern id="pattern1_7_220" patternUnits="userSpaceOnUse" patternTransform="matrix(4.6 0 0 4.6 20.1 64.85)" preserveAspectRatio="none" viewBox="0 0 20 20" width="1" height="1">
<g id="pattern1_7_220_inner">
<rect width="10" height="10" fill="#34342A"/>
</g>
</pattern><pattern id="pattern2_7_220" patternUnits="userSpaceOnUse" patternTransform="matrix(4.6 0 0 4.6 20.1 14.85)" preserveAspectRatio="none" viewBox="0 0 20 20" width="1" height="1">
<g id="pattern2_7_220_inner">
<rect width="10" height="10" fill="#34342A"/>
</g>
</pattern><pattern id="pattern3_7_220" patternUnits="userSpaceOnUse" patternTransform="matrix(4.6 0 0 4.6 20.1 32.35)" preserveAspectRatio="none" viewBox="0 0 20 20" width="1" height="1">
<g id="pattern3_7_220_inner">
<rect width="10" height="10" fill="#34342A"/>
</g>
</pattern><pattern id="pattern4_7_220" patternUnits="userSpaceOnUse" patternTransform="matrix(4.6 0 0 4.6 20.1 64.85)" preserveAspectRatio="none" viewBox="0 0 20 20" width="1" height="1">
<g id="pattern4_7_220_inner">
<rect width="10" height="10" fill="#34342A"/>
</g>
</pattern><pattern id="pattern5_7_220" patternUnits="userSpaceOnUse" patternTransform="matrix(4.6 0 0 4.6 20.1 48.85)" preserveAspectRatio="none" viewBox="0 0 20 20" width="1" height="1">
<g id="pattern5_7_220_inner">
<rect width="10" height="10" fill="#FFCA14"/>
</g>
</pattern><pattern id="pattern6_7_220" patternUnits="userSpaceOnUse" patternTransform="matrix(4.6 0 0 4.6 20.1 73.85)" preserveAspectRatio="none" viewBox="0 0 20 20" width="1" height="1">
<g id="pattern6_7_220_inner">
<rect width="10" height="10" fill="#34342A"/>
</g>
</pattern><pattern id="pattern7_7_220" patternUnits="userSpaceOnUse" patternTransform="matrix(4.6 0 0 4.6 20.1 82.35)" preserveAspectRatio="none" viewBox="0 0 20 20" width="1" height="1">
<g id="pattern7_7_220_inner">
<rect width="10" height="10" fill="#34342A"/>
</g>
</pattern><pattern id="pattern8_7_220" patternUnits="userSpaceOnUse" patternTransform="matrix(4.6 0 0 4.6 20.1 57.35)" preserveAspectRatio="none" viewBox="0 0 20 20" width="1" height="1">
<g id="pattern8_7_220_inner">
<rect width="10" height="10" fill="#34342A"/>
</g>
</pattern><pattern id="pattern9_7_220" patternUnits="userSpaceOnUse" patternTransform="matrix(4.6 0 0 4.6 20.1 73.85)" preserveAspectRatio="none" viewBox="0 0 20 20" width="1" height="1">
<g id="pattern9_7_220_inner">
<rect width="10" height="10" fill="#34342A"/>
</g>
</pattern><pattern id="pattern10_7_220" patternUnits="userSpaceOnUse" patternTransform="matrix(4.6 0 0 4.6 20.1 48.85)" preserveAspectRatio="none" viewBox="0 0 20 20" width="1" height="1">
<g id="pattern10_7_220_inner">
<rect width="10" height="10" fill="#34342A"/>
</g>
</pattern><pattern id="pattern11_7_220" patternUnits="userSpaceOnUse" patternTransform="matrix(4.6 0 0 4.6 20.1 82.35)" preserveAspectRatio="none" viewBox="0 0 20 20" width="1" height="1">
<g id="pattern11_7_220_inner">
<rect width="10" height="10" fill="#34342A"/>
</g>
</pattern><pattern id="pattern12_7_220" patternUnits="userSpaceOnUse" patternTransform="matrix(4.6 0 0 4.6 20.1 38.85)" preserveAspectRatio="none" viewBox="0 0 20 20" width="1" height="1">
<g id="pattern12_7_220_inner">
<rect width="10" height="10" fill="#34342A"/>
</g>
</pattern><pattern id="pattern13_7_220" patternUnits="userSpaceOnUse" patternTransform="matrix(4.6 0 0 4.6 20.1 64.85)" preserveAspectRatio="none" viewBox="0 0 20 20" width="1" height="1">
<g id="pattern13_7_220_inner">
<rect width="10" height="10" fill="#34342A"/>
</g>
</pattern><pattern id="pattern14_7_220" patternUnits="userSpaceOnUse" patternTransform="matrix(4.6 0 0 4.6 20.1 82.35)" preserveAspectRatio="none" viewBox="0 0 20 20" width="1" height="1">
<g id="pattern14_7_220_inner">
<rect width="10" height="10" fill="#34342A"/>
</g>
</pattern></defs>
</svg>
