<svg width="21" height="24" viewBox="0 0 21 24" fill="none" xmlns="http://www.w3.org/2000/svg">
<rect x="3.91527" y="19.7173" width="1.42888" height="1.42755" fill="#FFF9EB"/>
<rect x="14.6388" y="19.7173" width="1.42888" height="1.42755" fill="#FFF9EB"/>
<rect x="8.44412" y="22.573" width="3.09591" height="1.42755" fill="#FFF9EB"/>
<rect x="5.35037" y="21.1343" width="3.09591" height="1.42755" fill="#FFF9EB"/>
<rect x="11.5379" y="21.1343" width="3.09591" height="1.42755" fill="#FFF9EB"/>
<path d="M14.8963 9.20691H11.8006V10.2382H12.6737V10.8729H14.1024V10.0399H15.8885V15.036H14.8172V16.4247H13.4276V17.6932H12.6346V18.4471H11.4432V19.2792H8.26841V18.4862H7.11705V17.7723H6.20396V16.4247H4.97349V15.036H3.9022V10.0399H5.76744V10.8729H6.87877V10.2382H7.95103V9.16785H4.81529V7.85925H8.46666V7.06824H14.8963V9.20691ZM8.25767 16.7841H11.5126V15.9911H8.25767V16.7841ZM9.05845 14.7137H10.7254V13.9208H9.05845V14.7137Z" fill="#FFF9EB"/>
<path d="M3.89462 10.0039H2.46493V15.5546H3.89462V17.2597H5.20419V18.9658H2.48837V17.2929H0.28231V8.81343H1.71102V7.06734H3.89462V10.0039ZM18.2628 8.81343H19.6915V17.2929H17.5255V18.9658H14.6104V17.3398H16.1593V14.5634H17.3897V10.0039H16.0792V7.06734H18.2628V8.81343Z" fill="#FFF9EB"/>
<path d="M9.21708 3.05176e-05H10.712V2.08788H11.8393V4.99995H12.8196V2.89829H14.6001V1.30614H16.1771V2.35871H15.0498V5.00756H16.1036V3.78124H17.8926V2.35871H19.9267V5.00756H18.8974V7.68611H17.8926V5.00756H16.1036V6.33198H13.4078H10.712V2.08788H9.21708V6.33198H7.86919H6.5213H3.82552V5.00756H2.0365V7.68611H1.03171V5.00756H0.00241089V2.35871H2.0365V3.78124H3.82552V5.00756H4.87932V2.35871H3.752V1.30614H5.32895V2.89829H7.10947V4.99995H8.08975V2.08788H9.21708V3.05176e-05Z" fill="#FFF9EB"/>
</svg>
