<svg width="296" height="296" viewBox="0 0 296 296" fill="none" xmlns="http://www.w3.org/2000/svg">
<path d="M229.219 103.603C230.387 105.079 231.525 106.557 232.635 108.035L232.182 108.375L232.523 108.831C232.973 109.433 233.418 110.035 233.858 110.637L234.194 111.097L234.652 110.762C235.762 112.287 236.84 113.81 237.885 115.33L237.415 115.651L237.737 116.122C238.161 116.741 238.578 117.36 238.991 117.978L239.308 118.452L239.78 118.136C240.827 119.713 241.838 121.284 242.812 122.847L242.329 123.146L242.629 123.63C243.023 124.268 243.413 124.904 243.795 125.538L244.089 126.026L244.574 125.733C245.548 127.36 246.482 128.975 247.373 130.577L246.876 130.852L247.152 131.351C247.516 132.011 247.874 132.669 248.224 133.324L248.493 133.827L248.992 133.559C249.884 135.244 250.731 136.909 251.525 138.553L251.012 138.799L251.258 139.313C251.583 139.992 251.899 140.668 252.207 141.339L252.444 141.857L252.961 141.619C253.753 143.366 254.483 145.086 255.156 146.771L254.629 146.978L254.838 147.509C255.113 148.21 255.378 148.905 255.632 149.594L255.829 150.128L256.361 149.931C257.021 151.752 257.605 153.528 258.11 155.252L257.565 155.408L257.722 155.956C257.93 156.684 258.123 157.402 258.302 158.11L258.441 158.662L258.988 158.523C259.454 160.43 259.816 162.262 260.066 164.011L259.505 164.085L259.579 164.651C259.678 165.403 259.755 166.138 259.811 166.855L259.855 167.423L260.419 167.379C260.546 169.385 260.504 171.254 260.288 172.969L259.732 172.885L259.647 173.448C259.535 174.192 259.386 174.902 259.203 175.575L259.055 176.125L259.596 176.271C259.007 178.185 258.121 179.821 256.929 181.143L256.539 180.752L256.136 181.154C255.885 181.404 255.621 181.641 255.344 181.863C255.205 181.975 255.064 182.082 254.92 182.186L254.481 182.484L254.001 182.792L254.299 183.256C252.752 184.136 250.965 184.649 248.968 184.812L248.941 184.252L248.372 184.28C247.849 184.305 247.311 184.307 246.759 184.285L246.2 184.255L245.632 184.217L245.594 184.777C243.874 184.619 242.039 184.258 240.106 183.702L240.271 183.162L239.726 182.996C239.381 182.892 239.034 182.781 238.683 182.664L237.623 182.296L237.087 182.101L236.894 182.633C235.24 182.012 233.529 181.264 231.767 180.399L232.019 179.896L231.51 179.641C231.183 179.478 230.855 179.31 230.525 179.138L229.532 178.611L229.03 178.341L228.761 178.839C227.186 177.974 225.578 177.021 223.942 175.985L224.248 175.508L223.768 175.201C223.15 174.805 222.528 174.396 221.903 173.976L221.43 173.659L221.114 174.128C219.613 173.109 218.092 172.025 216.556 170.876L216.898 170.423L216.444 170.08C215.855 169.635 215.263 169.18 214.669 168.717L214.22 168.367L213.871 168.814C212.436 167.684 210.991 166.5 209.538 165.266L209.907 164.836L209.473 164.465C208.909 163.982 208.344 163.492 207.778 162.994L207.35 162.617L206.975 163.043C205.602 161.828 204.226 160.568 202.847 159.267L203.236 158.857L202.823 158.465C202.286 157.955 201.749 157.438 201.211 156.915L200.803 156.518L200.407 156.925C199.091 155.637 197.774 154.312 196.459 152.95L196.868 152.557L196.473 152.147C195.959 151.611 195.445 151.069 194.931 150.522L194.541 150.107L194.127 150.496C192.867 149.148 191.612 147.767 190.361 146.356L190.787 145.981L190.41 145.554C189.917 144.995 189.424 144.431 188.933 143.862L188.56 143.431L188.132 143.8C186.928 142.398 185.729 140.968 184.539 139.51L184.98 139.153L184.621 138.711C184.385 138.421 184.149 138.129 183.914 137.836C183.679 137.544 183.445 137.25 183.212 136.957L182.857 136.511L182.413 136.864C181.245 135.389 180.106 133.91 178.996 132.432L179.45 132.094L179.109 131.637L177.775 129.832L177.439 129.372L176.981 129.706C175.871 128.181 174.793 126.658 173.748 125.138L174.217 124.817L173.895 124.347C173.472 123.727 173.053 123.109 172.641 122.491L172.325 122.017L171.852 122.331C170.806 120.755 169.795 119.184 168.821 117.621L169.304 117.322L169.004 116.838C168.609 116.201 168.22 115.565 167.838 114.931L167.544 114.443L167.058 114.734C166.085 113.107 165.151 111.492 164.26 109.891L164.756 109.617L164.481 109.118C164.116 108.458 163.759 107.8 163.409 107.145L163.14 106.643L162.64 106.909C161.748 105.224 160.902 103.559 160.108 101.915L160.62 101.671L160.375 101.156L159.893 100.14C159.735 99.8027 159.58 99.4657 159.426 99.1302L159.188 98.6125L158.672 98.8488C157.88 97.1012 157.148 95.382 156.476 93.6967L157.003 93.4901L156.795 92.9597C156.519 92.2585 156.254 91.5634 156 90.8747L155.803 90.34L155.271 90.5356C154.611 88.715 154.027 86.9395 153.521 85.2154L154.066 85.0608L153.91 84.5131L153.609 83.4287C153.512 83.0699 153.42 82.7136 153.33 82.3599L153.19 81.807L152.643 81.9447C152.178 80.0374 151.817 78.2046 151.567 76.4554L152.128 76.3831L152.054 75.8186L151.921 74.7033C151.883 74.3359 151.85 73.9729 151.822 73.6144L151.777 73.0462L151.214 73.0897C151.086 71.0828 151.128 69.2129 151.344 67.4984L151.9 67.5832L151.985 67.0201L152.077 66.4689C152.174 65.9242 152.291 65.3988 152.428 64.8935L152.578 64.3437L152.037 64.1966C152.626 62.2824 153.511 60.6458 154.703 59.3245L155.093 59.7163L155.497 59.3143L155.883 58.95C156.015 58.8318 156.15 58.7166 156.289 58.6052C156.566 58.3826 156.853 58.1757 157.151 57.9844L157.631 57.6768L157.333 57.2109C158.88 56.3312 160.669 55.8191 162.665 55.6561L162.691 56.2161L163.259 56.1891C163.957 56.1555 164.682 56.1633 165.432 56.2131L166.001 56.2513L166.038 55.6913C167.759 55.8492 169.594 56.2099 171.526 56.766L171.362 57.3073L171.907 57.473C172.251 57.5774 172.598 57.6884 172.948 57.8051L174.01 58.1735L174.545 58.3673L174.737 57.8346C176.392 58.4551 178.103 59.2029 179.866 60.0676L179.613 60.5728L180.123 60.8284C180.449 60.9918 180.777 61.1591 181.106 61.3307L182.101 61.8579L182.602 62.1284L182.871 61.6291C184.446 62.4939 186.054 63.4459 187.691 64.4821L187.384 64.96L187.864 65.2672C188.482 65.6634 189.104 66.072 189.729 66.492L190.202 66.8096L190.518 66.3396C192.019 67.3586 193.541 68.4421 195.077 69.5915L194.734 70.0459L195.189 70.3893C195.484 70.6117 195.779 70.8365 196.074 71.0636L196.963 71.7522L197.413 72.1026L197.762 71.6537C199.197 72.7835 200.641 73.9684 202.094 75.2024L201.726 75.6333L202.159 76.0034C202.723 76.4863 203.289 76.9771 203.855 77.4753L204.283 77.8518L204.658 77.4251C206.03 78.6399 207.407 79.8992 208.786 81.2003L208.396 81.6122L208.809 82.0045C209.346 82.5143 209.884 83.0306 210.421 83.5532L210.829 83.9505L211.226 83.5429C212.542 84.8304 213.859 86.1554 215.174 87.5165L214.764 87.9109L215.158 88.322L216.701 89.9459L217.091 90.3614L217.506 89.9717C218.766 91.3195 220.021 92.7005 221.272 94.1118L220.846 94.4877L221.223 94.915C221.716 95.4741 222.208 96.0379 222.699 96.6066L223.071 97.0382L223.5 96.6674C224.704 98.0696 225.903 99.4995 227.093 100.957L226.652 101.315L227.012 101.758C227.248 102.048 227.484 102.34 227.719 102.633C227.954 102.926 228.188 103.219 228.421 103.512L228.776 103.957L229.219 103.603Z" stroke="#FEEFC7" stroke-width="1.13945" stroke-linecap="square" stroke-dasharray="2.28 6.84"/>
<path opacity="0.7" d="M223.392 98.827C224.683 100.142 225.952 101.462 227.198 102.786L226.784 103.175L227.174 103.591C227.676 104.127 228.175 104.664 228.669 105.201L229.055 105.621L229.473 105.235C230.72 106.596 231.942 107.961 233.14 109.328L232.713 109.701L233.087 110.131C233.572 110.686 234.054 111.242 234.53 111.798L234.901 112.232L235.33 111.862C236.528 113.266 237.699 114.669 238.842 116.074L238.402 116.432L238.76 116.875C239.226 117.45 239.687 118.026 240.144 118.601L240.499 119.047L240.943 118.694C242.088 120.143 243.202 121.591 244.288 123.036L243.835 123.375L244.176 123.831C244.619 124.425 245.057 125.018 245.49 125.611L245.827 126.071L246.285 125.734C247.374 127.232 248.428 128.726 249.45 130.213L248.983 130.533L249.304 131.004C249.722 131.615 250.133 132.226 250.539 132.836L250.855 133.31L251.328 132.993C252.353 134.541 253.338 136.081 254.286 137.61L253.804 137.908L254.103 138.393C254.491 139.025 254.874 139.655 255.249 140.283L255.541 140.772L256.028 140.48C256.977 142.079 257.881 143.666 258.741 145.237L258.244 145.508L258.516 146.009C258.871 146.663 259.218 147.315 259.557 147.964L259.821 148.468L260.322 148.206C261.182 149.867 261.991 151.509 262.746 153.129L262.233 153.366L262.47 153.884C262.779 154.554 263.079 155.221 263.369 155.883L263.598 156.405L264.118 156.177C264.865 157.907 265.547 159.608 266.165 161.277L265.632 161.471L265.827 162.006C266.08 162.704 266.322 163.397 266.552 164.083L266.733 164.623L267.271 164.442C267.862 166.244 268.371 168.003 268.796 169.715L268.244 169.847L268.377 170.402C268.549 171.122 268.706 171.833 268.848 172.535L268.959 173.093L269.514 172.981C269.874 174.863 270.123 176.679 270.257 178.421L269.693 178.457L269.729 179.026C269.776 179.766 269.801 180.492 269.804 181.202L269.807 181.771L270.371 181.767C270.348 183.697 270.164 185.517 269.812 187.215L269.264 187.087L269.134 187.642C268.967 188.356 268.77 189.045 268.541 189.708L268.355 190.247L268.886 190.429C268.219 192.194 267.323 193.784 266.191 195.179L265.77 194.813L265.395 195.242C265.162 195.509 264.919 195.769 264.666 196.02C264.414 196.271 264.153 196.513 263.884 196.744L263.453 197.117L263.817 197.539C262.415 198.664 260.82 199.55 259.051 200.207L258.872 199.676L258.332 199.859C257.833 200.028 257.32 200.179 256.794 200.313L256.262 200.44L255.707 200.567L255.832 201.115C254.133 201.457 252.312 201.631 250.382 201.642L250.387 201.079L249.818 201.073C249.109 201.066 248.383 201.036 247.643 200.985L247.075 200.947L247.036 201.509C245.295 201.366 243.481 201.106 241.6 200.735L241.715 200.182L241.157 200.067C240.456 199.922 239.746 199.76 239.027 199.584L238.473 199.448L238.339 199.998C236.629 199.563 234.873 199.044 233.074 198.443L233.257 197.907L232.718 197.723C232.033 197.489 231.342 197.243 230.646 196.985L230.111 196.789L229.915 197.32C228.249 196.692 226.552 195.999 224.827 195.242L225.058 194.725L224.537 194.493C223.877 194.199 223.212 193.895 222.543 193.583L222.027 193.342L221.787 193.853C220.172 193.089 218.535 192.271 216.879 191.401L217.143 190.903L216.64 190.636C215.993 190.293 215.343 189.942 214.691 189.583L214.192 189.309L213.919 189.804C212.353 188.935 210.771 188.021 209.178 187.063L209.471 186.578L208.984 186.284L207.101 185.126L206.617 184.825L206.318 185.304C204.794 184.347 203.259 183.354 201.718 182.321L202.035 181.85L201.564 181.531L199.739 180.286L199.27 179.962L198.948 180.426C197.467 179.396 195.979 178.333 194.488 177.236L194.825 176.781L194.368 176.441C193.778 176.004 193.187 175.563 192.596 175.116L192.142 174.773L191.8 175.223C190.362 174.13 188.92 173.007 187.478 171.853L187.832 171.412L187.388 171.055C186.816 170.595 186.243 170.13 185.671 169.66L185.23 169.3L184.87 169.738C183.472 168.586 182.075 167.407 180.678 166.202L181.049 165.775L180.618 165.402C180.065 164.922 179.511 164.438 178.958 163.95L178.532 163.572L178.156 163.997C176.797 162.791 175.439 161.561 174.085 160.306L174.472 159.891L174.055 159.503L172.453 157.999L172.04 157.607L171.649 158.017C170.332 156.764 169.02 155.487 167.712 154.189L168.111 153.789L167.708 153.386C167.447 153.125 167.186 152.864 166.925 152.602C166.664 152.34 166.405 152.077 166.146 151.815L165.746 151.409L165.343 151.806C164.052 150.49 162.782 149.171 161.537 147.846L161.951 147.459L161.56 147.043L160.065 145.433L159.68 145.013L159.261 145.397C158.014 144.036 156.792 142.671 155.595 141.305L156.022 140.933L155.647 140.504L154.204 138.836L153.833 138.403L153.404 138.771C152.207 137.367 151.035 135.963 149.892 134.559L150.332 134.202L149.975 133.759L148.59 132.034L148.236 131.588L147.792 131.94C146.647 130.491 145.532 129.042 144.447 127.597L144.9 127.259L144.559 126.803L143.244 125.023L142.907 124.564L142.449 124.898C141.36 123.401 140.306 121.906 139.285 120.419L139.752 120.101L139.431 119.631L138.196 117.799L137.879 117.325L137.406 117.639C136.382 116.092 135.397 114.552 134.449 113.022L134.931 112.726L134.632 112.241L133.485 110.351L133.193 109.862L132.707 110.153C131.758 108.554 130.854 106.967 129.993 105.396L130.491 105.126L130.219 104.626L129.692 103.646C129.519 103.32 129.347 102.995 129.178 102.671L128.913 102.166L128.413 102.427C127.553 100.766 126.744 99.1243 125.989 97.5045L126.502 97.2684L126.264 96.7505L125.807 95.7479C125.657 95.4147 125.51 95.082 125.365 94.7509L125.137 94.2289L124.617 94.456C123.871 92.7269 123.187 91.0262 122.569 89.3574L123.102 89.1642L122.908 88.6284C122.654 87.9302 122.412 87.238 122.182 86.552L122.001 86.0115L121.463 86.1909C120.873 84.389 120.363 82.6296 119.939 80.9177L120.49 80.7867L120.358 80.2325C120.185 79.5125 120.029 78.8016 119.887 78.1002L119.775 77.5412L119.22 77.6522C118.86 75.7693 118.611 73.9533 118.477 72.2114L119.041 72.1771L119.005 71.608C118.959 70.8681 118.934 70.143 118.931 69.4332L118.928 68.8635L118.363 68.8654C118.386 66.9355 118.571 65.1157 118.923 63.4187L119.471 63.5473L119.6 62.9925L119.73 62.4618C119.867 61.9358 120.022 61.4237 120.193 60.926L120.379 60.3872L119.849 60.2041C120.516 58.439 121.412 56.8497 122.544 55.454L122.965 55.8212L123.339 55.3921L123.696 54.9974C123.818 54.8676 123.942 54.7396 124.068 54.6139C124.194 54.4883 124.323 54.3655 124.453 54.2448L124.85 53.8897L125.282 53.5173L124.918 53.0944C126.32 51.9701 127.914 51.0827 129.683 50.426L129.862 50.9582L130.402 50.7754C130.901 50.6065 131.414 50.4554 131.94 50.3219L132.471 50.1943L133.027 50.0675L132.903 49.5188C134.602 49.1761 136.423 49.002 138.353 48.9903L138.347 49.5552L138.917 49.5616C139.449 49.5671 139.99 49.5846 140.539 49.6146L141.091 49.6487L141.66 49.6876L141.698 49.1235C143.439 49.2672 145.254 49.5264 147.134 49.8973L147.02 50.4522L147.578 50.5677C147.928 50.6404 148.281 50.7175 148.636 50.7979L149.708 51.0503L150.261 51.1858L150.396 50.6345C152.105 51.0692 153.862 51.5885 155.66 52.1895L155.477 52.7269L156.016 52.9114C156.358 53.0284 156.703 53.1484 157.048 53.2714L158.089 53.6486L158.623 53.8463L158.82 53.3137C160.486 53.9409 162.182 54.6341 163.907 55.3909L163.676 55.9096L164.197 56.141C164.527 56.2879 164.859 56.4377 165.191 56.5892L166.191 57.0513L166.708 57.2924L166.947 56.7793C168.563 57.5438 170.2 58.3619 171.856 59.2317L171.591 59.7316L172.095 59.9989C172.418 60.1702 172.742 60.3436 173.067 60.5189L174.044 61.0513L174.543 61.3262L174.816 60.8291C176.382 61.6986 177.964 62.6125 179.557 63.5703L179.263 64.0556L179.751 64.3505C180.376 64.7295 181.004 65.1153 181.634 65.5077L182.117 65.8095L182.417 65.3283C183.941 66.2852 185.475 67.2789 187.017 68.3122L186.698 68.7843L187.171 69.1033L188.996 70.3487L189.464 70.6726L189.786 70.2067C191.267 71.2369 192.755 72.2993 194.247 73.3966L193.908 73.8542L194.367 74.1931C194.956 74.6297 195.547 75.071 196.138 75.5178L196.593 75.8617L196.934 75.4096C198.373 76.5034 199.815 77.6266 201.257 78.7801L200.903 79.2224L201.346 79.5793L203.064 80.9736L203.505 81.3339L203.864 80.8951C205.262 82.0463 206.659 83.2258 208.056 84.4309L207.685 84.8594L208.116 85.2321L209.775 86.6849L210.202 87.0618L210.578 86.6361C211.937 87.8417 213.295 89.0714 214.649 90.3263L214.262 90.7429L214.679 91.1308C215.214 91.6285 215.748 92.13 216.281 92.6353L216.695 93.028L217.085 92.6155C218.402 93.8688 219.715 95.1455 221.022 96.4441L220.623 96.8455L221.026 97.2485C221.287 97.5089 221.549 97.7697 221.809 98.0318C222.07 98.2939 222.329 98.5566 222.588 98.8191L222.989 99.225L223.392 98.827Z" stroke="#FEEFC7" stroke-width="1.13945" stroke-linecap="square" stroke-dasharray="2.28 6.84"/>
<path opacity="0.4" d="M217.154 95.9414C218.605 97.1335 220.037 98.3323 221.452 99.5358L221.084 99.9688L221.517 100.339C222.088 100.826 222.655 101.314 223.22 101.803L223.651 102.176L224.022 101.745C225.44 102.977 226.84 104.214 228.219 105.455L227.838 105.877L228.261 106.259C228.815 106.759 229.365 107.261 229.913 107.762L230.333 108.146L230.717 107.726C232.102 108.999 233.465 110.276 234.808 111.556L234.415 111.967L234.827 112.361C235.371 112.881 235.912 113.402 236.448 113.923L236.857 114.321L237.253 113.912C238.601 115.225 239.926 116.541 241.228 117.859L240.823 118.258L241.222 118.665C241.746 119.197 242.266 119.729 242.782 120.262L243.178 120.671L243.587 120.274C244.895 121.629 246.179 122.986 247.437 124.343L247.02 124.729L247.406 125.148C247.917 125.701 248.424 126.255 248.927 126.809L249.311 127.23L249.732 126.847C250.997 128.246 252.235 129.644 253.444 131.04L253.014 131.412L253.386 131.844C253.874 132.409 254.356 132.974 254.834 133.539L255.203 133.974L255.637 133.606C256.857 135.053 258.046 136.498 259.204 137.938L258.76 138.293L259.116 138.737C259.585 139.324 260.049 139.911 260.508 140.496L260.86 140.944L261.307 140.593C262.469 142.083 263.595 143.567 264.687 145.044L264.228 145.381L264.566 145.841C265.014 146.45 265.455 147.059 265.89 147.665L266.223 148.128L266.685 147.797C267.786 149.341 268.846 150.877 269.866 152.402L269.394 152.717L269.709 153.192C270.124 153.817 270.534 154.441 270.935 155.063L271.244 155.541L271.721 155.232C272.75 156.837 273.732 158.428 274.667 160.005L274.176 160.293L274.464 160.784C274.843 161.43 275.215 162.072 275.577 162.713L275.858 163.208L276.352 162.927C277.289 164.597 278.172 166.248 278.997 167.878L278.489 168.133L278.743 168.642C279.079 169.313 279.404 169.981 279.719 170.644L279.965 171.159L280.477 170.914C281.293 172.653 282.042 174.366 282.72 176.05L282.193 176.259L282.403 176.788C282.681 177.491 282.946 178.188 283.199 178.88L283.395 179.415L283.927 179.22C284.578 181.038 285.142 182.817 285.616 184.553L285.068 184.698L285.214 185.249C285.405 185.977 285.581 186.697 285.74 187.408L285.865 187.964L286.418 187.839C286.824 189.742 287.114 191.586 287.284 193.365L286.719 193.412L286.766 193.98C286.827 194.733 286.866 195.474 286.882 196.201L286.895 196.771L287.458 196.757C287.471 198.706 287.321 200.563 287.003 202.32L286.453 202.208L286.339 202.766C286.191 203.495 286.011 204.205 285.802 204.895L285.636 205.44L286.173 205.602C285.573 207.412 284.759 209.088 283.724 210.618L283.271 210.292L282.938 210.754C282.726 211.049 282.504 211.339 282.274 211.622C282.044 211.905 281.806 212.18 281.56 212.448L281.176 212.868L281.588 213.245C280.302 214.57 278.826 215.708 277.177 216.664L276.909 216.174L276.409 216.447C275.934 216.706 275.446 216.951 274.943 217.182L274.434 217.408L273.911 217.633L274.133 218.148C272.479 218.817 270.691 219.342 268.781 219.727L268.678 219.174L268.118 219.278C267.581 219.377 267.035 219.466 266.479 219.543L265.92 219.618L265.354 219.688L265.425 220.248C263.648 220.446 261.783 220.538 259.838 220.528L259.847 219.963L259.276 219.954C258.912 219.948 258.544 219.94 258.174 219.927L257.056 219.879L256.486 219.849L256.456 220.413C254.66 220.303 252.803 220.114 250.891 219.848L250.973 219.288L250.41 219.205C250.046 219.152 249.679 219.096 249.311 219.037L248.2 218.852L247.638 218.755L247.542 219.312C245.755 218.991 243.926 218.609 242.057 218.165L242.191 217.614L241.637 217.479C240.924 217.305 240.204 217.122 239.479 216.931L238.928 216.786L238.783 217.334C237.019 216.86 235.222 216.334 233.397 215.756L233.57 215.215L233.027 215.042C232.327 214.817 231.622 214.585 230.913 214.346L230.373 214.164L230.191 214.702C228.457 214.109 226.699 213.471 224.918 212.791L225.123 212.262L224.592 212.057C223.902 211.791 223.207 211.518 222.51 211.239L221.981 211.027L221.77 211.553C220.068 210.866 218.348 210.141 216.612 209.378L216.842 208.858L216.321 208.628C215.638 208.326 214.952 208.017 214.264 207.704L213.746 207.467L213.51 207.983C211.841 207.216 210.158 206.416 208.463 205.583L208.715 205.074L208.204 204.821C207.538 204.492 206.869 204.156 206.199 203.817L205.691 203.559L205.434 204.065C203.788 203.226 202.132 202.356 200.466 201.457L200.737 200.959L200.236 200.686C199.586 200.333 198.934 199.976 198.281 199.614L197.783 199.337L197.507 199.834C195.894 198.934 194.273 198.007 192.646 197.054L192.933 196.565L192.443 196.276C191.798 195.896 191.152 195.513 190.506 195.125L190.018 194.833L189.725 195.319C188.141 194.364 186.55 193.384 184.956 192.38L185.261 191.9L184.779 191.595C184.153 191.199 183.526 190.798 182.898 190.394L182.419 190.085L182.111 190.563C180.555 189.558 178.997 188.528 177.437 187.476L177.755 187.006L177.283 186.687C176.663 186.268 176.043 185.845 175.423 185.419L174.953 185.096L174.631 185.564C173.104 184.51 171.576 183.435 170.048 182.339L170.379 181.879L169.917 181.546C169.315 181.113 168.712 180.675 168.11 180.235L167.649 179.899L167.315 180.357C165.818 179.26 164.322 178.142 162.827 177.005L163.171 176.555L162.718 176.21C162.125 175.757 161.532 175.3 160.938 174.84L160.488 174.492L160.139 174.941C158.672 173.801 157.207 172.643 155.744 171.466L156.102 171.024L155.659 170.666C155.367 170.43 155.075 170.194 154.783 169.957C154.492 169.719 154.2 169.481 153.91 169.244L153.469 168.883L153.108 169.323C151.658 168.131 150.226 166.933 148.811 165.73L149.18 165.297L148.746 164.927C148.175 164.44 147.607 163.952 147.042 163.463L146.612 163.091L146.241 163.519C144.823 162.287 143.423 161.05 142.044 159.809L142.425 159.389L142.002 159.006C141.448 158.506 140.897 158.006 140.35 157.504L139.93 157.12L139.546 157.538C138.161 156.265 136.797 154.989 135.455 153.709L135.848 153.299L135.436 152.905L133.815 151.342L133.406 150.946L133.01 151.352C131.662 150.039 130.337 148.724 129.035 147.407L129.44 147.007L129.041 146.602L127.48 145.005L127.084 144.596L126.676 144.991C125.367 143.635 124.084 142.278 122.826 140.922L123.243 140.537L122.857 140.119L121.335 138.457L120.952 138.036L120.531 138.417C119.266 137.018 118.028 135.62 116.818 134.224L117.249 133.853L116.877 133.422L115.428 131.727L115.059 131.292L114.625 131.658C113.405 130.211 112.216 128.767 111.059 127.327L111.503 126.973L111.147 126.528L109.755 124.77L109.403 124.322L108.956 124.672C107.794 123.182 106.668 121.698 105.576 120.22L106.034 119.885L105.697 119.425L104.372 117.601L104.04 117.137L103.577 117.468C102.477 115.924 101.416 114.388 100.396 112.862L100.869 112.548L100.554 112.074L99.3285 110.203L99.0189 109.725L98.5424 110.032C97.5139 108.428 96.5309 106.837 95.5966 105.261L96.087 104.973L95.7982 104.482L95.2356 103.516C95.0501 103.194 94.8666 102.874 94.6852 102.554L94.405 102.058L93.9097 102.337C92.9723 100.667 92.0908 99.0161 91.2661 97.3858L91.7739 97.1328L91.52 96.6231L91.0244 95.6197C90.8616 95.286 90.701 94.9534 90.5432 94.6217L90.2985 94.1069L89.7856 94.3506C88.9691 92.6114 88.222 90.8982 87.5437 89.2149L88.07 89.0073L87.8605 88.477C87.5825 87.7743 87.3169 87.077 87.0639 86.3856L86.8679 85.8511L86.3353 86.0448C85.6847 84.2274 85.1215 82.4485 84.6472 80.7125L85.1947 80.5686L85.0498 80.0178L84.7733 78.9321C84.6854 78.5721 84.6022 78.2141 84.5224 77.8583L84.3978 77.3027L83.8447 77.4256C83.4383 75.5226 83.1486 73.6783 82.9793 71.8988L83.5432 71.8539L83.4965 71.286L83.4552 70.7238C83.4177 70.1635 83.393 69.6103 83.3807 69.0647L83.3678 68.4954L82.8047 68.5069C82.792 66.5584 82.9423 64.7017 83.2602 62.9453L83.8091 63.0581L83.9231 62.5L84.0406 61.9562C84.1635 61.4167 84.3039 60.8883 84.461 60.371L84.6262 59.8257L84.0908 59.6622C84.6909 57.8527 85.5034 56.1765 86.538 54.6465L86.9918 54.9739L87.3246 54.5119L87.6508 54.0736L87.9884 53.6445C88.2185 53.3614 88.4568 53.0858 88.7022 52.8177L89.0865 52.3977L88.674 52.0195C89.961 50.6944 91.4358 49.5559 93.0851 48.5993L93.3538 49.0922L93.854 48.8192C94.4866 48.4734 95.145 48.1527 95.8285 47.8583L96.3516 47.633L96.1298 47.1178C97.7846 46.4483 99.5718 45.9217 101.482 45.5366L101.585 46.0919L102.145 45.9876C102.682 45.8883 103.228 45.8004 103.784 45.7229L104.343 45.6486L104.908 45.5785L104.838 45.0158C106.615 44.8185 108.479 44.7267 110.425 44.7364L110.417 45.3037L110.986 45.3123C111.351 45.3178 111.718 45.3263 112.089 45.3389L113.208 45.3881L113.777 45.4176L113.806 44.8509C115.602 44.9612 117.459 45.1502 119.371 45.4165L119.289 45.9782L119.853 46.0603C120.582 46.1669 121.318 46.2847 122.063 46.4135L122.624 46.5112L122.721 45.9515C124.507 46.2722 126.337 46.6554 128.206 47.1L128.072 47.6519L128.625 47.7871C128.982 47.8739 129.341 47.9633 129.7 48.0546L130.784 48.3344L131.335 48.4797L131.48 47.9295C133.244 48.4043 135.041 48.9318 136.866 49.509L136.693 50.0502L137.235 50.2241C137.586 50.3365 137.937 50.4506 138.29 50.5667L139.35 50.9204L139.89 51.1029L140.072 50.5635C141.806 51.1565 143.564 51.7936 145.345 52.4733L145.14 53.0039L145.672 53.2087L147.753 54.0272L148.282 54.2385L148.493 53.7114C150.194 54.3992 151.914 55.1237 153.651 55.8864L153.421 56.4071L153.942 56.6381L155.998 57.5625L156.517 57.7992L156.753 57.2813C158.422 58.0484 160.105 58.8491 161.8 59.6823L161.548 60.1921L162.058 60.4449L164.064 61.4489L164.572 61.7069L164.828 61.1993C166.474 62.0388 168.131 62.9084 169.796 63.8077L169.526 64.3076L170.026 64.5802L171.981 65.6525L172.48 65.9281L172.756 65.4311C174.369 66.3304 175.99 67.2567 177.617 68.21L177.329 68.7007L177.82 68.9903L179.757 70.1408L180.246 70.4341L180.538 69.9457C182.123 70.9007 183.712 71.8805 185.306 72.885L185.002 73.3662L185.483 73.6706L187.365 74.8726L187.844 75.1801L188.152 74.702C189.707 75.7075 191.266 76.7363 192.826 77.7877L192.508 78.2599L192.98 78.5785L194.841 79.8473L195.31 80.1696L195.632 79.7012C197.158 80.7545 198.687 81.8287 200.215 82.9246L199.883 83.3872L200.345 83.72C200.948 84.1535 201.551 84.5902 202.153 85.0303L202.613 85.3667L202.949 84.9067C204.445 86.0039 205.941 87.1216 207.436 88.2587L207.091 88.7108L207.544 89.0563C208.138 89.5094 208.732 89.9656 209.325 90.425L209.776 90.7742L210.124 90.3246C211.591 91.464 213.056 92.6217 214.519 93.7986L214.161 94.2416L214.604 94.5993C214.896 94.8351 215.189 95.0721 215.48 95.3093C215.772 95.5465 216.063 95.7841 216.354 96.0218L216.794 96.3825L217.154 95.9414Z" stroke="#FEEFC7" stroke-width="1.13945" stroke-linecap="square" stroke-dasharray="2.28 6.84"/>
<path opacity="0.2" d="M210.69 93.959C212.204 95.0314 213.705 96.1108 215.192 97.1955L214.857 97.6546L215.317 97.9904C215.918 98.4303 216.518 98.8716 217.115 99.3135L217.573 99.653L217.911 99.1956C219.4 100.302 220.875 101.413 222.335 102.53L221.989 102.983L222.441 103.328C223.033 103.783 223.624 104.239 224.211 104.695L224.661 105.046L225.01 104.596C226.474 105.737 227.923 106.884 229.357 108.034L229 108.478L229.444 108.835C230.025 109.303 230.604 109.772 231.179 110.241L231.621 110.601L231.98 110.16C233.418 111.337 234.84 112.518 236.246 113.704L235.879 114.138L236.313 114.507C236.882 114.988 237.448 115.469 238.011 115.952L238.444 116.322L238.813 115.89C240.224 117.103 241.617 118.32 242.993 119.54L242.615 119.964L243.041 120.343C243.596 120.837 244.148 121.332 244.697 121.827L245.12 122.208L245.501 121.785C246.882 123.034 248.244 124.287 249.587 125.542L249.199 125.957L249.614 126.347C250.155 126.853 250.692 127.36 251.226 127.868L251.639 128.26L252.031 127.849C253.38 129.135 254.709 130.424 256.017 131.714L255.617 132.119L256.022 132.52C256.549 133.041 257.072 133.562 257.591 134.083L257.994 134.487L258.396 134.086C259.709 135.409 260.999 136.733 262.266 138.057L261.855 138.45L262.249 138.862C262.766 139.404 263.279 139.947 263.788 140.489L264.178 140.904L264.592 140.515C265.867 141.877 267.117 143.239 268.342 144.601L267.92 144.981L268.3 145.405C268.798 145.961 269.291 146.516 269.781 147.072L270.158 147.5L270.584 147.123C271.816 148.527 273.023 149.929 274.202 151.33L273.766 151.696L274.132 152.133C274.608 152.701 275.079 153.268 275.546 153.835L275.908 154.275L276.346 153.914C277.531 155.361 278.688 156.804 279.814 158.245L279.365 158.594L279.715 159.044C280.173 159.633 280.625 160.223 281.073 160.811L281.419 161.263L281.871 160.918C283.003 162.412 284.102 163.901 285.167 165.385L284.705 165.716L285.036 166.179C285.47 166.787 285.898 167.394 286.32 167.999L286.646 168.466L287.113 168.14C288.181 169.681 289.212 171.216 290.206 172.742L289.73 173.051L290.038 173.53C290.441 174.152 290.837 174.774 291.227 175.394L291.53 175.875L292.011 175.572C293.008 177.17 293.963 178.759 294.875 180.336L294.383 180.62L294.667 181.113C295.038 181.762 295.402 182.408 295.759 183.052L296.034 183.551L296.532 183.275C297.436 184.924 298.292 186.56 299.098 188.181L298.588 188.432L298.839 188.944C299.17 189.616 299.491 190.285 299.804 190.951L300.046 191.468L300.559 191.226C301.355 192.942 302.093 194.64 302.771 196.319L302.244 196.529L302.455 197.058C302.728 197.745 302.991 198.428 303.244 199.107L303.442 199.64L303.973 199.441C304.626 201.23 305.21 202.993 305.722 204.729L305.177 204.886L305.335 205.434C305.539 206.144 305.73 206.85 305.91 207.551L306.051 208.103L306.599 207.962C307.058 209.815 307.428 211.633 307.712 213.414L307.154 213.497L307.238 214.061C307.347 214.79 307.441 215.513 307.519 216.228L307.581 216.794L308.142 216.731C308.33 218.633 308.411 220.487 308.38 222.289L307.815 222.272L307.799 222.842C307.776 223.582 307.734 224.313 307.673 225.034L307.624 225.602L308.186 225.65C307.998 227.533 307.678 229.351 307.221 231.099L306.679 230.948L306.526 231.497C306.327 232.205 306.105 232.902 305.86 233.585L305.668 234.121L306.196 234.31C305.536 236.049 304.726 237.707 303.757 239.278L303.283 238.973L302.975 239.452C302.777 239.759 302.573 240.062 302.363 240.361C302.153 240.661 301.938 240.955 301.717 241.245L301.371 241.699L301.82 242.039C300.672 243.485 299.389 244.811 297.979 246.024L297.62 245.592L297.182 245.955C296.622 246.418 296.043 246.864 295.445 247.291L294.981 247.622L295.308 248.08C293.819 249.104 292.219 250.025 290.511 250.842L290.275 250.331L289.758 250.569C289.43 250.721 289.097 250.868 288.76 251.012L287.739 251.434L287.21 251.643L287.418 252.167C285.734 252.81 283.963 253.365 282.111 253.835L281.978 253.288L281.425 253.422C281.075 253.507 280.723 253.589 280.367 253.668L279.292 253.895L278.733 254.008L278.845 254.561C277.074 254.9 275.238 255.17 273.34 255.369L273.285 254.807L272.718 254.861C272.358 254.896 271.996 254.929 271.631 254.959L270.532 255.041L269.963 255.08L270.002 255.644C268.195 255.754 266.338 255.805 264.434 255.799L264.44 255.234L263.87 255.229C263.508 255.226 263.144 255.22 262.778 255.212L261.676 255.184L261.107 255.165L261.089 255.733C259.28 255.666 257.432 255.549 255.548 255.385L255.6 254.821L255.032 254.768C254.665 254.735 254.297 254.699 253.928 254.662L252.816 254.545L252.249 254.483L252.187 255.047C250.388 254.841 248.559 254.593 246.701 254.304L246.79 253.743L246.228 253.653C245.864 253.595 245.499 253.535 245.133 253.474L244.033 253.286L243.471 253.188L243.374 253.746C241.58 253.425 239.761 253.068 237.919 252.674L238.039 252.12L237.484 251.999C236.768 251.843 236.048 251.682 235.326 251.515L234.771 251.388L234.644 251.94C232.87 251.525 231.076 251.078 229.263 250.597L229.41 250.049L228.86 249.902C228.147 249.711 227.431 249.514 226.712 249.313L226.163 249.16L226.011 249.705C224.253 249.208 222.479 248.682 220.689 248.126L220.859 247.585L220.315 247.414L218.192 246.737L217.65 246.561L217.475 247.101C215.737 246.533 213.986 245.937 212.222 245.315L212.412 244.78L211.875 244.59C211.183 244.344 210.489 244.094 209.793 243.84L209.258 243.644L209.063 244.177C207.345 243.546 205.616 242.888 203.876 242.207L204.084 241.679L203.554 241.471C202.865 241.199 202.175 240.924 201.483 240.645L200.955 240.432L200.742 240.958C199.044 240.269 197.338 239.557 195.623 238.822L195.848 238.301L195.325 238.076C194.642 237.782 193.957 237.483 193.271 237.182L192.749 236.952L192.521 237.471C190.844 236.73 189.16 235.967 187.469 235.183L187.709 234.669L187.193 234.428C186.525 234.117 185.857 233.804 185.188 233.486L184.674 233.241L184.43 233.753C182.771 232.963 181.107 232.152 179.438 231.321L179.691 230.813L179.182 230.559C178.523 230.229 177.863 229.896 177.203 229.56L176.696 229.302L176.437 229.809C174.8 228.973 173.159 228.118 171.514 227.244L171.782 226.743L171.28 226.475C170.627 226.127 169.974 225.776 169.321 225.422L168.819 225.151L168.549 225.65C166.934 224.772 165.316 223.875 163.695 222.961L163.976 222.468L163.48 222.187C162.835 221.822 162.189 221.454 161.543 221.083L161.049 220.799L160.766 221.291C159.173 220.373 157.578 219.438 155.982 218.486L156.274 217.999L155.786 217.706C155.148 217.325 154.51 216.941 153.872 216.554L153.385 216.258L153.091 216.743C151.521 215.787 149.95 214.814 148.378 213.825L148.681 213.346L148.199 213.041C147.57 212.644 146.94 212.244 146.311 211.842L145.832 211.536L145.525 212.014C143.978 211.021 142.43 210.013 140.884 208.989L141.199 208.516L140.724 208.2C140.105 207.789 139.486 207.376 138.868 206.96L138.395 206.642L138.078 207.113C136.552 206.084 135.027 205.039 133.503 203.98L133.828 203.515L133.361 203.189C133.055 202.975 132.749 202.762 132.444 202.547C132.138 202.333 131.834 202.118 131.53 201.904L131.063 201.575L130.736 202.039C129.221 200.966 127.72 199.888 126.232 198.803L126.568 198.344L126.109 198.009L124.311 196.685L123.853 196.346L123.515 196.803C122.026 195.697 120.551 194.585 119.091 193.468L119.437 193.018L118.985 192.671L117.214 191.304L116.764 190.954L116.416 191.402C114.952 190.261 113.502 189.114 112.069 187.963L112.425 187.521L111.981 187.165L110.246 185.758L109.805 185.398L109.446 185.838C108.007 184.661 106.585 183.479 105.18 182.294L105.547 181.861L105.112 181.493L103.415 180.047L102.982 179.677L102.612 180.107C101.202 178.895 99.808 177.679 98.433 176.459L98.8107 176.035L98.3854 175.657L96.7285 174.172L96.3049 173.791L95.9245 174.213C94.5431 172.963 93.1804 171.712 91.8375 170.457L92.2275 170.042L91.8114 169.652L90.1992 168.131L89.7862 167.739L89.3949 168.15C88.0452 166.863 86.7165 165.574 85.4084 164.283L85.8081 163.88L85.4028 163.48L83.8342 161.916L83.4326 161.512L83.0302 161.912C81.7173 160.589 80.4269 159.265 79.1591 157.94L79.5702 157.55L79.1774 157.137L77.6379 155.511L77.2482 155.095L76.8339 155.484C75.5594 154.121 74.3091 152.759 73.0837 151.397L73.5066 151.019L73.1266 150.595L71.6444 148.927L71.268 148.5L70.8416 148.875C69.6089 147.471 68.4025 146.068 67.2237 144.668L67.6596 144.303L67.2937 143.867L65.8795 142.164L65.5178 141.724L65.079 142.084C63.8938 140.638 62.738 139.194 61.6125 137.753L62.061 137.405L61.7117 136.956L60.3516 135.189L60.0064 134.736L59.5542 135.079C58.4223 133.586 57.3243 132.096 56.2589 130.613L56.7208 130.285L56.3891 129.821L55.1054 128.001L54.7794 127.534L54.3133 127.858C53.2447 126.317 52.2137 124.782 51.2199 123.256L51.6967 122.949L51.387 122.47L50.1992 120.606L49.8953 120.124L49.4145 120.425C48.417 118.828 47.4626 117.239 46.5509 115.662L47.0428 115.381L46.7598 114.886L46.208 113.915C46.026 113.592 45.8457 113.269 45.6674 112.947L45.3913 112.448L44.8933 112.723C43.9889 111.074 43.1336 109.438 42.3278 107.816L42.8379 107.567L42.587 107.056L42.0978 106.049C41.9371 105.715 41.7785 105.381 41.6221 105.048L41.3802 104.532L40.867 104.772C40.0714 103.056 39.3323 101.358 38.6538 99.6798L39.1822 99.4708L38.971 98.942L38.5693 97.9146C38.4378 97.5734 38.3084 97.2332 38.182 96.8938L37.9831 96.3594L37.4526 96.5562C36.7989 94.7677 36.2151 93.0045 35.7035 91.2684L36.2477 91.1134L36.0906 90.5653C35.8867 89.8547 35.6951 89.1486 35.5159 88.4479L35.3743 87.8965L34.8267 88.036C34.3682 86.1832 33.9963 84.3649 33.7128 82.5842L34.2718 82.5016L34.1876 81.938L34.0361 80.8498C33.9892 80.4887 33.9465 80.1294 33.9073 79.7717L33.8443 79.2051L33.2837 79.2663C33.0956 77.3643 33.0146 75.5105 33.0458 73.7085L33.6105 73.7265L33.6278 73.1577L33.676 72.0535C33.6969 71.6883 33.723 71.3255 33.7536 70.9651L33.8013 70.3973L33.2397 70.3493C33.4274 68.4657 33.7475 66.6469 34.2046 64.8982L34.7474 65.0512L34.9008 64.5027L35.054 63.9731C35.2115 63.4465 35.382 62.9264 35.5657 62.4139L35.7578 61.8783L35.2294 61.6877C35.8897 59.949 36.6998 58.2903 37.6686 56.7197L38.1422 57.0258L38.4508 56.5468L38.7521 56.0901L39.0619 55.6383C39.272 55.3389 39.488 55.0436 39.7088 54.7536L40.0536 54.3013L39.6052 53.9593C40.7526 52.5136 42.0367 51.1869 43.4472 49.9743L43.8051 50.4079L44.2439 50.0441C44.6634 49.697 45.0943 49.3597 45.5359 49.0323L45.9817 48.7081L46.4453 48.3772L46.1173 47.918C47.6059 46.8934 49.2071 45.9738 50.9141 45.1565L51.1504 45.6682L51.6681 45.4302C51.9966 45.2787 52.3288 45.1308 52.6651 44.9868L53.687 44.5657L54.216 44.3558L54.0082 43.8307C55.6919 43.1883 57.4622 42.6329 59.3144 42.1625L59.4471 42.7113L60.0014 42.5777C60.7004 42.408 61.4113 42.2498 62.1337 42.1041L62.6923 41.9914L62.5798 41.4377C64.3507 41.0983 66.187 40.8293 68.0853 40.6299L68.1399 41.1931L68.7071 41.1377C69.427 41.0678 70.1561 41.0077 70.8937 40.9575L71.462 40.9196L71.4237 40.3535C73.2302 40.2438 75.0869 40.1926 76.9911 40.1987L76.986 40.7654L77.5556 40.7713C77.918 40.7746 78.2821 40.7798 78.6479 40.7873L79.7502 40.8162L80.3198 40.8341L80.3379 40.2658C82.1465 40.3327 83.9941 40.4495 85.8784 40.6135L85.8268 41.1785L86.394 41.2305C86.7606 41.2641 87.1285 41.2996 87.4979 41.3369L88.6108 41.4544L89.1769 41.5164L89.2383 40.951C91.0369 41.157 92.8664 41.4045 94.7248 41.6938L94.6355 42.2563L95.1988 42.3461C95.5623 42.4041 95.9267 42.464 96.2924 42.5252L97.3938 42.7134L97.9545 42.812L98.052 42.253C99.8454 42.5735 101.664 42.9305 103.506 43.3247L103.386 43.8799L103.943 44.001L106.099 44.4844L106.655 44.612L106.782 44.0582C108.556 44.4732 110.35 44.9204 112.163 45.4007L112.015 45.951L112.566 46.0985L114.713 46.6865L115.262 46.8405L115.415 46.2928C117.173 46.7897 118.947 47.3154 120.736 47.8714L120.567 48.4144L121.11 48.5855L123.234 49.2624L123.775 49.4381L123.951 48.8969C125.689 49.4651 127.439 50.0614 129.203 50.6834L129.013 51.2186L129.55 51.4091L131.632 52.16L132.167 52.3551L132.362 51.8203C134.08 52.452 135.81 53.1092 137.549 53.7905L137.341 54.3199L137.872 54.5283L139.944 55.3546L140.472 55.5677L140.684 55.0404C142.382 55.7292 144.088 56.4413 145.803 57.1761L145.579 57.6986L146.102 57.9237L148.155 58.8178L148.676 59.0475L148.905 58.5265C150.582 59.2679 152.266 60.0306 153.957 60.8149L153.717 61.3301L154.233 61.5705L156.237 62.5139L156.753 62.7586L156.996 62.2447C158.655 63.0354 160.319 63.8466 161.988 64.6777L161.734 65.1856L162.244 65.4405C162.903 65.77 163.562 66.103 164.223 66.4387L164.731 66.6974L164.988 66.1895C166.625 67.0253 168.266 67.8798 169.911 68.7536L169.643 69.2563L170.146 69.5243L172.106 70.5771L172.606 70.8483L172.877 70.3486C174.492 71.2265 176.109 72.1225 177.73 73.0365L177.451 73.5313L177.946 73.8118L179.882 74.9164L180.377 75.1999L180.659 74.7065C182.252 75.6245 183.847 76.5593 185.443 77.5116L185.152 78.0002L185.64 78.2925L187.553 79.4461L188.04 79.7413L188.335 79.255C189.905 80.2112 191.476 81.1838 193.048 82.1728L192.744 82.6537L193.226 82.9575L195.114 84.1568L195.594 84.4646L195.901 83.9845C197.448 84.9773 198.995 85.9863 200.542 87.0103L200.228 87.484L200.702 87.799L202.558 89.039L203.03 89.3572L203.347 88.8852C204.873 89.9145 206.399 90.9584 207.923 92.0178L207.597 92.485L208.065 92.8104C208.37 93.0235 208.676 93.2372 208.982 93.4515C209.287 93.6659 209.592 93.881 209.897 94.0959L210.362 94.4245L210.69 93.959Z" stroke="#FEEFC7" stroke-width="1.13945" stroke-linecap="square" stroke-dasharray="2.28 6.84"/>
<rect x="97.8796" y="168.34" width="0.759634" height="12.1541" transform="rotate(25.2132 97.8796 168.34)" fill="url(#paint0_linear_7_162)"/>
<circle cx="95.5288" cy="174.342" r="1.51927" transform="rotate(25.2132 95.5288 174.342)" fill="#FEEFC7"/>
<rect x="162.497" y="167.457" width="0.759634" height="12.1541" transform="rotate(25.2132 162.497 167.457)" fill="url(#paint1_linear_7_162)"/>
<circle cx="160.138" cy="173.459" r="1.51927" transform="rotate(25.2132 160.138 173.459)" fill="#FEEFC7"/>
<rect x="128.442" y="90.6719" width="0.759634" height="12.1541" transform="rotate(25.2132 128.442 90.6719)" fill="url(#paint2_linear_7_162)"/>
<circle cx="126.091" cy="96.6702" r="1.51927" transform="rotate(25.2132 126.091 96.6702)" fill="#FEEFC7"/>
<rect x="248.591" y="177.949" width="0.759634" height="12.1541" transform="rotate(25.2132 248.591 177.949)" fill="url(#paint3_linear_7_162)"/>
<circle cx="246.232" cy="183.951" r="1.51927" transform="rotate(25.2132 246.232 183.951)" fill="#FEEFC7"/>
<g clip-path="url(#clip0_7_162)">
<path d="M241.022 139.765C243.532 139.584 245.006 142.529 243.36 144.43L233.456 155.861L233.457 155.862C232.774 156.65 231.807 157.135 230.768 157.209L176.76 161.102C174.251 161.283 172.775 158.34 174.422 156.438L184.326 145.005C185.008 144.218 185.975 143.733 187.014 143.658L241.022 139.765Z" fill="#FEEFC7" stroke="black" stroke-width="3.43284"/>
<path d="M238.151 99.9272C240.661 99.7463 242.136 102.691 240.488 104.592L230.584 116.024C229.902 116.812 228.936 117.297 227.897 117.372L173.889 121.264C171.379 121.445 169.904 118.502 171.551 116.6L181.455 105.167C182.137 104.38 183.104 103.895 184.143 103.82L238.151 99.9272Z" fill="#FEEFC7" stroke="black" stroke-width="3.43284"/>
<path d="M228.125 120.542C229.164 120.467 230.191 120.807 230.979 121.489L230.978 121.49L242.419 131.384C244.321 133.029 243.284 136.154 240.775 136.335L186.766 140.228C185.727 140.303 184.701 139.962 183.913 139.28L172.472 129.387C170.569 127.741 171.607 124.615 174.117 124.434L228.125 120.542Z" fill="#FEEFC7" stroke="black" stroke-width="3.43284"/>
</g>
<defs>
<linearGradient id="paint0_linear_7_162" x1="98.2594" y1="168.34" x2="98.2594" y2="180.494" gradientUnits="userSpaceOnUse">
<stop stop-color="#FFF9EB" stop-opacity="0"/>
<stop offset="0.5" stop-color="#FEEFC7"/>
<stop offset="1" stop-color="#FFF9EB" stop-opacity="0"/>
</linearGradient>
<linearGradient id="paint1_linear_7_162" x1="162.877" y1="167.457" x2="162.877" y2="179.611" gradientUnits="userSpaceOnUse">
<stop stop-color="#FFF9EB" stop-opacity="0"/>
<stop offset="0.5" stop-color="#FEEFC7"/>
<stop offset="1" stop-color="#FFF9EB" stop-opacity="0"/>
</linearGradient>
<linearGradient id="paint2_linear_7_162" x1="128.822" y1="90.6719" x2="128.822" y2="102.826" gradientUnits="userSpaceOnUse">
<stop stop-color="#FFF9EB" stop-opacity="0"/>
<stop offset="0.5" stop-color="#FEEFC7"/>
<stop offset="1" stop-color="#FFF9EB" stop-opacity="0"/>
</linearGradient>
<linearGradient id="paint3_linear_7_162" x1="248.97" y1="177.949" x2="248.97" y2="190.103" gradientUnits="userSpaceOnUse">
<stop stop-color="#FFF9EB" stop-opacity="0"/>
<stop offset="0.5" stop-color="#FEEFC7"/>
<stop offset="1" stop-color="#FFF9EB" stop-opacity="0"/>
</linearGradient>
<clipPath id="clip0_7_162">
<rect width="83.6148" height="83.6148" fill="white" transform="translate(177.653 79.9844) rotate(13.2846)"/>
</clipPath>
</defs>
</svg>
