<svg width="189" height="24" viewBox="0 0 189 24" fill="none" xmlns="http://www.w3.org/2000/svg">
<path d="M1.312 8.592C1.984 8.592 2.47467 8.43733 2.784 8.128C3.104 7.808 3.26933 7.312 3.28 6.64H4.848V18H2.848V10.144H0.416V8.592H1.312ZM10.8766 6.64C12.6793 6.64 14.066 7.136 15.0366 8.128C16.018 9.10933 16.5086 10.512 16.5086 12.336C16.5086 14.1493 16.0286 15.5467 15.0686 16.528C14.1193 17.5093 12.754 18 10.9726 18H7.13262V6.64H10.8766ZM10.8766 16.224C12.0713 16.224 12.962 15.904 13.5486 15.264C14.146 14.6133 14.4446 13.6373 14.4446 12.336C14.4446 11.0133 14.146 10.032 13.5486 9.392C12.962 8.74133 12.0713 8.416 10.8766 8.416H9.14862V16.224H10.8766Z" fill="#78736C"/>
<path d="M38.688 6.64V8.256C37.536 9.65333 36.6453 11.1733 36.016 12.816C35.3973 14.448 35.1093 16.176 35.152 18H33.088C33.088 16.272 33.4027 14.592 34.032 12.96C34.6613 11.328 35.552 9.81333 36.704 8.416H30.416V6.64H38.688ZM43.8454 6.64C45.648 6.64 47.0347 7.136 48.0054 8.128C48.9867 9.10933 49.4774 10.512 49.4774 12.336C49.4774 14.1493 48.9974 15.5467 48.0374 16.528C47.088 17.5093 45.7227 18 43.9414 18H40.1014V6.64H43.8454ZM43.8454 16.224C45.04 16.224 45.9307 15.904 46.5174 15.264C47.1147 14.6133 47.4134 13.6373 47.4134 12.336C47.4134 11.0133 47.1147 10.032 46.5174 9.392C45.9307 8.74133 45.04 8.416 43.8454 8.416H42.1174V16.224H43.8454Z" fill="#78736C"/>
<path d="M67.928 11.2C68.2693 11.2107 68.5893 11.1627 68.888 11.056C69.1867 10.9387 69.432 10.752 69.624 10.496C69.816 10.24 69.912 9.92 69.912 9.536C69.912 9.25867 69.832 9.01867 69.672 8.816C69.512 8.60267 69.2827 8.44267 68.984 8.336C68.6853 8.21867 68.3333 8.16 67.928 8.16C67.416 8.16 66.9947 8.27733 66.664 8.512C66.3333 8.736 66.1413 9.04 66.088 9.424L64.024 9.312C64.088 8.74667 64.296 8.24 64.648 7.792C65.0107 7.344 65.4747 6.99733 66.04 6.752C66.616 6.50667 67.256 6.384 67.96 6.384C68.76 6.384 69.464 6.50667 70.072 6.752C70.68 6.99733 71.1493 7.344 71.48 7.792C71.8213 8.24 71.992 8.75733 71.992 9.344C71.992 10.0373 71.7627 10.608 71.304 11.056C70.856 11.4933 70.1947 11.792 69.32 11.952L69.336 11.776C69.976 11.8827 70.5253 12.08 70.984 12.368C71.4427 12.6453 71.7893 12.9973 72.024 13.424C72.2587 13.8507 72.376 14.336 72.376 14.88C72.376 15.5413 72.1893 16.128 71.816 16.64C71.4533 17.152 70.936 17.552 70.264 17.84C69.6027 18.1173 68.8347 18.256 67.96 18.256C67.16 18.256 66.4453 18.112 65.816 17.824C65.1867 17.536 64.6853 17.136 64.312 16.624C63.9493 16.1013 63.7467 15.504 63.704 14.832L65.768 14.736C65.832 15.3013 66.0773 15.7333 66.504 16.032C66.9413 16.3307 67.432 16.48 67.976 16.48C68.3813 16.48 68.76 16.4107 69.112 16.272C69.464 16.1333 69.7467 15.9253 69.96 15.648C70.184 15.3707 70.296 15.024 70.296 14.608C70.296 14.192 70.184 13.8453 69.96 13.568C69.736 13.28 69.4427 13.072 69.08 12.944C68.728 12.8053 68.344 12.7413 67.928 12.752L67 12.768V11.184L67.928 11.2ZM78.338 18.256C77.3673 18.256 76.53 18.016 75.826 17.536C75.122 17.0453 74.578 16.3573 74.194 15.472C73.8207 14.576 73.634 13.5307 73.634 12.336C73.634 11.1307 73.8207 10.08 74.194 9.184C74.578 8.288 75.122 7.6 75.826 7.12C76.53 6.62933 77.3673 6.384 78.338 6.384C79.3087 6.384 80.146 6.62933 80.85 7.12C81.5647 7.6 82.1087 8.288 82.482 9.184C82.8553 10.08 83.042 11.1307 83.042 12.336C83.042 13.5307 82.8553 14.576 82.482 15.472C82.1087 16.3573 81.5647 17.0453 80.85 17.536C80.146 18.016 79.3087 18.256 78.338 18.256ZM78.338 16.48C78.9033 16.48 79.3833 16.32 79.778 16C80.1727 15.68 80.466 15.2107 80.658 14.592C80.8607 13.9733 80.962 13.2213 80.962 12.336C80.962 11.44 80.8607 10.6827 80.658 10.064C80.466 9.43467 80.1727 8.96 79.778 8.64C79.3833 8.32 78.9033 8.16 78.338 8.16C77.7727 8.16 77.2927 8.32 76.898 8.64C76.514 8.96 76.2207 9.43467 76.018 10.064C75.8153 10.6827 75.714 11.44 75.714 12.336C75.714 13.2213 75.8153 13.9733 76.018 14.592C76.2207 15.2107 76.514 15.68 76.898 16C77.2927 16.32 77.7727 16.48 78.338 16.48ZM88.291 6.64C90.0937 6.64 91.4803 7.136 92.451 8.128C93.4323 9.10933 93.923 10.512 93.923 12.336C93.923 14.1493 93.443 15.5467 92.483 16.528C91.5337 17.5093 90.1683 18 88.387 18H84.547V6.64H88.291ZM88.291 16.224C89.4857 16.224 90.3763 15.904 90.963 15.264C91.5603 14.6133 91.859 13.6373 91.859 12.336C91.859 11.0133 91.5603 10.032 90.963 9.392C90.3763 8.74133 89.4857 8.416 88.291 8.416H86.563V16.224H88.291Z" fill="#FEEFC7"/>
<path d="M111.896 18.256C110.893 18.256 110.072 18.0213 109.432 17.552C108.792 17.0827 108.349 16.4213 108.104 15.568L110.136 15.44C110.253 15.7707 110.456 16.0267 110.744 16.208C111.043 16.3787 111.427 16.464 111.896 16.464C112.749 16.464 113.384 16.1387 113.8 15.488C114.216 14.8373 114.429 13.7867 114.44 12.336L114.744 12.432C114.467 13.0613 114.072 13.536 113.56 13.856C113.048 14.176 112.429 14.336 111.704 14.336C110.957 14.336 110.296 14.176 109.72 13.856C109.155 13.5253 108.712 13.072 108.392 12.496C108.072 11.9093 107.912 11.232 107.912 10.464C107.912 9.64267 108.083 8.928 108.424 8.32C108.776 7.70133 109.267 7.22667 109.896 6.896C110.525 6.55467 111.251 6.384 112.072 6.384C113.555 6.384 114.659 6.85333 115.384 7.792C116.12 8.73067 116.488 10.08 116.488 11.84C116.488 13.8773 116.115 15.456 115.368 16.576C114.632 17.696 113.475 18.256 111.896 18.256ZM112.088 12.704C112.525 12.704 112.909 12.6187 113.24 12.448C113.571 12.2667 113.827 12.0053 114.008 11.664C114.189 11.3227 114.28 10.9227 114.28 10.464C114.28 9.99467 114.195 9.58933 114.024 9.248C113.853 8.896 113.603 8.624 113.272 8.432C112.952 8.22933 112.573 8.128 112.136 8.128C111.699 8.128 111.32 8.224 111 8.416C110.691 8.608 110.451 8.88 110.28 9.232C110.109 9.57333 110.024 9.97867 110.024 10.448C110.024 10.9067 110.109 11.3067 110.28 11.648C110.451 11.9893 110.691 12.2507 111 12.432C111.309 12.6133 111.672 12.704 112.088 12.704ZM122.606 18.256C121.646 18.256 120.809 18.016 120.094 17.536C119.379 17.056 118.83 16.3733 118.446 15.488C118.062 14.592 117.87 13.5413 117.87 12.336C117.87 11.1307 118.062 10.08 118.446 9.184C118.841 8.288 119.39 7.6 120.094 7.12C120.809 6.62933 121.646 6.384 122.606 6.384C123.566 6.384 124.398 6.624 125.102 7.104C125.817 7.584 126.366 8.272 126.75 9.168C127.134 10.064 127.326 11.12 127.326 12.336C127.326 13.5413 127.134 14.592 126.75 15.488C126.377 16.3733 125.833 17.056 125.118 17.536C124.403 18.016 123.566 18.256 122.606 18.256ZM122.606 16.448C123.161 16.448 123.63 16.2933 124.014 15.984C124.398 15.664 124.686 15.2 124.878 14.592C125.081 13.9733 125.182 13.2213 125.182 12.336C125.182 11.44 125.081 10.6827 124.878 10.064C124.686 9.44533 124.398 8.98133 124.014 8.672C123.63 8.352 123.161 8.192 122.606 8.192C122.051 8.192 121.582 8.352 121.198 8.672C120.814 8.98133 120.521 9.44533 120.318 10.064C120.126 10.6827 120.03 11.44 120.03 12.336C120.03 13.2213 120.126 13.9733 120.318 14.592C120.521 15.2 120.814 15.664 121.198 15.984C121.582 16.2933 122.051 16.448 122.606 16.448ZM128.703 6.64H132.479C134.292 6.64 135.684 7.136 136.655 8.128C137.636 9.10933 138.127 10.512 138.127 12.336C138.127 14.1493 137.647 15.5467 136.687 16.528C135.727 17.5093 134.356 18 132.575 18H128.703V6.64ZM132.479 16.192C133.663 16.192 134.543 15.872 135.119 15.232C135.695 14.592 135.983 13.6267 135.983 12.336C135.983 11.024 135.695 10.048 135.119 9.408C134.543 8.768 133.663 8.448 132.479 8.448H130.783V16.192H132.479Z" fill="#78736C"/>
<path d="M152.312 8.592C152.984 8.592 153.475 8.43733 153.784 8.128C154.104 7.808 154.269 7.312 154.28 6.64H155.848V18H153.848V10.144H151.416V8.592H152.312ZM162.053 18.256C161.157 18.256 160.367 18.1173 159.685 17.84C159.002 17.5627 158.469 17.1733 158.085 16.672C157.711 16.16 157.525 15.5627 157.525 14.88C157.525 14.1653 157.733 13.5413 158.149 13.008C158.565 12.4747 159.146 12.0853 159.893 11.84C159.306 11.6267 158.853 11.328 158.533 10.944C158.223 10.5493 158.069 10.0693 158.069 9.504C158.069 8.90667 158.234 8.37333 158.565 7.904C158.906 7.424 159.375 7.05067 159.973 6.784C160.581 6.51733 161.274 6.384 162.053 6.384C162.842 6.384 163.535 6.51733 164.133 6.784C164.741 7.05067 165.21 7.424 165.541 7.904C165.871 8.37333 166.037 8.90667 166.037 9.504C166.037 10.0587 165.882 10.5333 165.573 10.928C165.263 11.3227 164.81 11.6267 164.213 11.84C164.959 12.096 165.541 12.4907 165.957 13.024C166.373 13.5467 166.581 14.1653 166.581 14.88C166.581 15.5627 166.394 16.16 166.021 16.672C165.647 17.1733 165.114 17.5627 164.421 17.84C163.738 18.1173 162.949 18.256 162.053 18.256ZM159.621 14.624C159.621 15.1893 159.839 15.6427 160.277 15.984C160.725 16.3147 161.317 16.48 162.053 16.48C162.799 16.48 163.391 16.3147 163.829 15.984C164.277 15.6427 164.501 15.1893 164.501 14.624C164.501 14.2507 164.399 13.9253 164.197 13.648C163.994 13.36 163.711 13.1413 163.349 12.992C162.986 12.832 162.554 12.752 162.053 12.752C161.562 12.752 161.135 12.832 160.773 12.992C160.41 13.1413 160.127 13.36 159.925 13.648C159.722 13.9253 159.621 14.2507 159.621 14.624ZM160.149 9.648C160.149 10.1067 160.319 10.4693 160.661 10.736C161.002 11.0027 161.466 11.136 162.053 11.136C162.65 11.136 163.119 11.0027 163.461 10.736C163.802 10.4693 163.973 10.1067 163.973 9.648C163.973 9.18933 163.802 8.82667 163.461 8.56C163.119 8.29333 162.65 8.16 162.053 8.16C161.466 8.16 161.002 8.29333 160.661 8.56C160.319 8.82667 160.149 9.18933 160.149 9.648ZM172.377 18.256C171.407 18.256 170.569 18.016 169.865 17.536C169.161 17.0453 168.617 16.3573 168.233 15.472C167.86 14.576 167.673 13.5307 167.673 12.336C167.673 11.1307 167.86 10.08 168.233 9.184C168.617 8.288 169.161 7.6 169.865 7.12C170.569 6.62933 171.407 6.384 172.377 6.384C173.348 6.384 174.185 6.62933 174.889 7.12C175.604 7.6 176.148 8.288 176.521 9.184C176.895 10.08 177.081 11.1307 177.081 12.336C177.081 13.5307 176.895 14.576 176.521 15.472C176.148 16.3573 175.604 17.0453 174.889 17.536C174.185 18.016 173.348 18.256 172.377 18.256ZM172.377 16.48C172.943 16.48 173.423 16.32 173.817 16C174.212 15.68 174.505 15.2107 174.697 14.592C174.9 13.9733 175.001 13.2213 175.001 12.336C175.001 11.44 174.9 10.6827 174.697 10.064C174.505 9.43467 174.212 8.96 173.817 8.64C173.423 8.32 172.943 8.16 172.377 8.16C171.812 8.16 171.332 8.32 170.937 8.64C170.553 8.96 170.26 9.43467 170.057 10.064C169.855 10.6827 169.753 11.44 169.753 12.336C169.753 13.2213 169.855 13.9733 170.057 14.592C170.26 15.2107 170.553 15.68 170.937 16C171.332 16.32 171.812 16.48 172.377 16.48ZM182.33 6.64C184.133 6.64 185.52 7.136 186.49 8.128C187.472 9.10933 187.962 10.512 187.962 12.336C187.962 14.1493 187.482 15.5467 186.522 16.528C185.573 17.5093 184.208 18 182.426 18H178.586V6.64H182.33ZM182.33 16.224C183.525 16.224 184.416 15.904 185.002 15.264C185.6 14.6133 185.898 13.6373 185.898 12.336C185.898 11.0133 185.6 10.032 185.002 9.392C184.416 8.74133 183.525 8.416 182.33 8.416H180.602V16.224H182.33Z" fill="#78736C"/>
</svg>
